<?xml version="1.0" encoding="UTF-8"?>
<!DOCTYPE svg PUBLIC "-//W3C//DTD SVG 1.1//EN" "http://www.w3.org/Graphics/SVG/1.1/DTD/svg11.dtd">
<svg xmlns="http://www.w3.org/2000/svg" version="1.1" width="303px" height="197px" style="shape-rendering:geometricPrecision; text-rendering:geometricPrecision; image-rendering:optimizeQuality; fill-rule:evenodd; clip-rule:evenodd" xmlns:xlink="http://www.w3.org/1999/xlink">
<g><path style="opacity:1" fill="#dd3537" d="M 238.5,13.5 C 239.833,14.1667 241.167,14.8333 242.5,15.5C 230.849,14.593 219.183,14.593 207.5,15.5C 217.613,12.5856 227.946,11.919 238.5,13.5 Z"/></g>
<g><path style="opacity:1" fill="#ec1e24" d="M 242.5,15.5 C 244.167,15.5 245.833,15.5 247.5,15.5C 248.918,17.3079 250.918,17.9746 253.5,17.5C 253.5,18.5 253.5,19.5 253.5,20.5C 256.482,20.9629 259.482,21.2962 262.5,21.5C 264.153,21.6596 265.486,22.3263 266.5,23.5C 267.818,27.0865 270.485,29.0865 274.5,29.5C 277.167,31.5 279.5,33.8333 281.5,36.5C 282.529,39.8908 284.529,42.5574 287.5,44.5C 289.085,50.1225 291.085,55.4558 293.5,60.5C 294.5,60.5 295.5,60.5 296.5,60.5C 296.5,60.8333 296.5,61.1667 296.5,61.5C 296.259,63.8984 296.926,65.8984 298.5,67.5C 298.41,70.1522 299.076,72.4855 300.5,74.5C 300.5,74.8333 300.5,75.1667 300.5,75.5C 301.773,87.5041 301.773,99.5041 300.5,111.5C 300.5,112.167 300.5,112.833 300.5,113.5C 297.121,120.629 294.121,127.962 291.5,135.5C 291.167,136.167 290.833,136.833 290.5,137.5C 289.85,137.196 289.183,136.863 288.5,136.5C 287.785,138.778 286.618,140.111 285,140.5C 284.395,138.519 283.395,138.185 282,139.5C 282.595,141.35 283.095,143.35 283.5,145.5C 281.801,145.34 280.134,145.506 278.5,146C 279.973,146.71 280.64,147.876 280.5,149.5C 280.5,150.167 280.167,150.5 279.5,150.5C 275.591,150.134 272.924,151.8 271.5,155.5C 270.377,153.711 269.044,153.378 267.5,154.5C 270.131,156.005 269.797,156.671 266.5,156.5C 266.5,157.833 266.5,159.167 266.5,160.5C 265.167,160.5 263.833,160.5 262.5,160.5C 262.5,161.5 262.5,162.5 262.5,163.5C 260.533,163.739 258.699,163.406 257,162.5C 256.383,163.449 256.549,164.282 257.5,165C 256.244,165.417 255.577,166.25 255.5,167.5C 252.428,167.183 249.428,167.516 246.5,168.5C 243.202,170.743 239.535,171.909 235.5,172C 234.944,172.383 234.611,172.883 234.5,173.5C 225.524,174.308 216.524,174.642 207.5,174.5C 205.265,174.795 203.265,174.461 201.5,173.5C 197.714,171.571 193.714,170.238 189.5,169.5C 189.389,168.883 189.056,168.383 188.5,168C 200.591,167.906 212.591,166.906 224.5,165C 225.571,164.148 226.571,163.315 227.5,162.5C 230.491,162.834 232.824,161.834 234.5,159.5C 238.73,159.386 242.063,157.719 244.5,154.5C 246.147,152.674 248.147,151.34 250.5,150.5C 254.704,148.967 258.037,146.3 260.5,142.5C 264.548,141.428 266.881,138.761 267.5,134.5C 269.531,133.461 270.864,131.795 271.5,129.5C 274.365,126.81 276.531,123.477 278,119.5C 278.333,119.833 278.667,120.167 279,120.5C 279.498,117.518 279.665,114.518 279.5,111.5C 279.216,109.585 279.549,107.919 280.5,106.5C 281.913,103.618 282.579,100.451 282.5,97C 282.123,92.4865 281.623,87.9865 281,83.5C 280.722,82.5842 280.222,81.9175 279.5,81.5C 279.66,79.8008 279.494,78.1341 279,76.5C 278.329,75.7476 277.496,75.4142 276.5,75.5C 276.5,75.1667 276.5,74.8333 276.5,74.5C 276.416,71.3183 275.083,68.985 272.5,67.5C 270.196,64.8587 267.862,62.192 265.5,59.5C 264.415,57.4131 262.749,56.0798 260.5,55.5C 258.847,55.3404 257.514,54.6737 256.5,53.5C 254.657,49.9908 251.657,48.6574 247.5,49.5C 245.097,49.552 242.764,49.2186 240.5,48.5C 238.359,47.8367 236.025,47.5034 233.5,47.5C 230.731,47.5286 228.397,48.1952 226.5,49.5C 220.941,50.1074 215.608,51.6074 210.5,54C 210.833,54.3333 211.167,54.6667 211.5,55C 208.077,54.8551 206.077,56.3551 205.5,59.5C 204.127,59.3433 202.793,59.51 201.5,60C 202.956,60.4226 203.456,61.2559 203,62.5C 201.644,63.3802 200.144,63.7135 198.5,63.5C 198.5,65.1667 198.5,66.8333 198.5,68.5C 197.136,70.1911 195.803,71.8577 194.5,73.5C 193.167,73.5 191.833,73.5 190.5,73.5C 190.5,75.1667 190.5,76.8333 190.5,78.5C 189.448,78.3505 188.448,78.5172 187.5,79C 188.604,80.1313 188.271,80.9646 186.5,81.5C 185.534,83.396 185.201,85.396 185.5,87.5C 184.25,87.5774 183.417,88.244 183,89.5C 180.323,87.9338 178.99,88.6005 179,91.5C 180.156,90.0072 180.99,90.1739 181.5,92C 180.258,95.4376 178.591,98.6043 176.5,101.5C 175.534,103.396 175.201,105.396 175.5,107.5C 175.5,107.833 175.5,108.167 175.5,108.5C 173.034,108.899 171.034,110.065 169.5,112C 170.127,114.411 170.127,116.911 169.5,119.5C 169.167,120.167 168.833,120.833 168.5,121.5C 167.178,121.67 166.011,121.337 165,120.5C 164.061,123.121 163.228,125.788 162.5,128.5C 159.013,129.522 157.68,131.855 158.5,135.5C 157.127,135.343 155.793,135.51 154.5,136C 155.308,136.308 155.975,136.808 156.5,137.5C 155.873,138.417 155.539,139.417 155.5,140.5C 153.212,144.456 150.212,147.789 146.5,150.5C 143.09,150.384 141.756,152.05 142.5,155.5C 140.821,155.285 139.821,155.952 139.5,157.5C 138.5,159.167 137.167,160.5 135.5,161.5C 132.941,158.667 131.608,159.334 131.5,163.5C 130.167,163.5 128.833,163.5 127.5,163.5C 127.5,164.833 127.5,166.167 127.5,167.5C 124.223,168.423 120.89,169.256 117.5,170C 118.167,170.333 118.833,170.667 119.5,171C 116.844,172.161 114.511,173.661 112.5,175.5C 111.486,176.674 110.153,177.34 108.5,177.5C 105.99,177.054 103.99,177.72 102.5,179.5C 97.2844,180.804 91.951,181.637 86.5,182C 85.944,182.383 85.6107,182.883 85.5,183.5C 75.5675,184.968 65.5675,184.635 55.5,182.5C 53.3826,180.345 50.716,179.345 47.5,179.5C 45.7857,176.805 43.4524,174.805 40.5,173.5C 41.0766,171.45 42.4099,170.45 44.5,170.5C 45.1584,166.323 43.4918,164.823 39.5,166C 38.9505,167.845 37.9505,169.345 36.5,170.5C 34.1987,169.675 31.8654,169.008 29.5,168.5C 28.4065,165.739 26.4065,164.073 23.5,163.5C 23.5123,160.858 22.179,159.525 19.5,159.5C 16.7559,157.016 14.7559,154.016 13.5,150.5C 12.7522,145.993 10.7522,142.327 7.5,139.5C 7.5,139.167 7.5,138.833 7.5,138.5C 6.52477,132.074 4.52477,126.074 1.5,120.5C 0.989877,117.017 0.32321,113.684 -0.5,110.5C -0.5,108.5 -0.5,106.5 -0.5,104.5C 0.833333,104.167 0.833333,103.833 -0.5,103.5C -0.5,102.5 -0.5,101.5 -0.5,100.5C 0.224766,96.6047 0.891433,92.6047 1.5,88.5C 3.02157,83.7982 4.85491,79.1315 7,74.5C 7.49351,72.8659 7.66018,71.1992 7.5,69.5C 7.6596,67.847 8.32627,66.5137 9.5,65.5C 11.5587,63.7396 12.892,61.4062 13.5,58.5C 15.0098,57.2721 16.5098,57.2721 18,58.5C 17.0155,56.4021 17.3489,54.4021 19,52.5C 23.037,48.631 26.8704,44.631 30.5,40.5C 32.2964,38.1 34.6298,36.4333 37.5,35.5C 41.727,34.4563 45.3937,32.4563 48.5,29.5C 53.5166,28.6072 58.1832,26.9405 62.5,24.5C 63.5676,23.5655 64.901,23.2322 66.5,23.5C 69.1667,23.5 71.8333,23.5 74.5,23.5C 87.8189,22.0651 100.486,23.8984 112.5,29C 104.833,29.3333 97.1667,29.6667 89.5,30C 84.801,30.7491 80.4676,32.2491 76.5,34.5C 73.3511,34.4152 70.6845,35.4152 68.5,37.5C 67.4863,38.6737 66.153,39.3404 64.5,39.5C 61.8872,38.5651 59.2205,38.3985 56.5,39C 57.624,39.2492 58.624,39.7492 59.5,40.5C 57.8918,41.2421 56.2251,41.4087 54.5,41C 55.4132,42.4139 55.4132,43.9139 54.5,45.5C 53.205,46.4884 51.8717,47.4884 50.5,48.5C 48.1667,48.5 45.8333,48.5 43.5,48.5C 43.5,50.1667 43.5,51.8333 43.5,53.5C 39.6509,53.0193 37.6509,54.686 37.5,58.5C 34.1341,58.9087 33.1341,60.5754 34.5,63.5C 33.1266,63.3433 31.7932,63.51 30.5,64C 31.3366,65.0113 31.67,66.1779 31.5,67.5C 30.1266,67.3433 28.7932,67.51 27.5,68C 28.3081,68.3076 28.9747,68.8076 29.5,69.5C 27.9951,70.8415 27.3285,72.5082 27.5,74.5C 27.1667,75.8333 26.8333,77.1667 26.5,78.5C 24.8235,79.1834 24.1568,80.5168 24.5,82.5C 23.5416,82.9528 22.7083,83.6195 22,84.5C 20.4844,92.638 20.3177,100.638 21.5,108.5C 21.4415,113.321 22.2748,117.988 24,122.5C 24.6708,123.252 25.5041,123.586 26.5,123.5C 27.6737,124.514 28.3404,125.847 28.5,127.5C 28.427,129.027 29.0937,130.027 30.5,130.5C 31.5,133.5 33.5,135.5 36.5,136.5C 38.1667,137.833 39.8333,139.167 41.5,140.5C 42.8214,144.13 45.488,145.797 49.5,145.5C 51.403,145.796 53.0697,146.463 54.5,147.5C 54.9175,148.222 55.5842,148.722 56.5,149C 60,149.167 63.5,149.333 67,149.5C 70.9018,149.488 74.4018,148.821 77.5,147.5C 81.4093,147.864 84.4093,146.53 86.5,143.5C 88.5,143.5 90.5,143.5 92.5,143.5C 92.33,142.178 92.6634,141.011 93.5,140C 95.433,139.749 97.2663,139.249 99,138.5C 99.4828,137.552 99.6495,136.552 99.5,135.5C 100.6,134.395 101.267,133.062 101.5,131.5C 105.236,130.095 107.569,127.429 108.5,123.5C 109.026,121.77 110.026,120.436 111.5,119.5C 112.906,119.027 113.573,118.027 113.5,116.5C 116.084,115.952 117.084,114.285 116.5,111.5C 117.659,107.849 119.326,104.515 121.5,101.5C 123.112,100.548 124.612,100.214 126,100.5C 126.42,94.6467 128.587,89.6467 132.5,85.5C 131.754,84.2638 131.421,82.9305 131.5,81.5C 134.451,80.1906 135.784,77.8573 135.5,74.5C 137.408,73.5144 138.408,71.8477 138.5,69.5C 139.34,67.1475 140.674,65.1475 142.5,63.5C 143.906,63.0269 144.573,62.0269 144.5,60.5C 148.784,57.2476 152.118,53.2476 154.5,48.5C 154.5,46.5 155.5,45.5 157.5,45.5C 160.5,44.5 162.5,42.5 163.5,39.5C 166.089,38.5806 168.089,36.914 169.5,34.5C 172.37,33.5667 174.704,31.9 176.5,29.5C 180.857,28.9966 184.191,26.9966 186.5,23.5C 187.514,22.3263 188.847,21.6596 190.5,21.5C 194.358,21.2299 197.691,19.8966 200.5,17.5C 202.527,17.6621 204.527,17.4955 206.5,17C 207.056,16.6174 207.389,16.1174 207.5,15.5C 219.183,14.593 230.849,14.593 242.5,15.5 Z"/></g>
<g><path style="opacity:0.843" fill="#d54549" d="M 238.5,13.5 C 241.781,13.4203 244.781,14.087 247.5,15.5C 245.833,15.5 244.167,15.5 242.5,15.5C 241.167,14.8333 239.833,14.1667 238.5,13.5 Z"/></g>
<g><path style="opacity:0.976" fill="#d23637" d="M 207.5,15.5 C 207.389,16.1174 207.056,16.6174 206.5,17C 204.527,17.4955 202.527,17.6621 200.5,17.5C 202.657,16.5933 204.99,15.9267 207.5,15.5 Z"/></g>
<g><path style="opacity:1" fill="#d73c3e" d="M 200.5,17.5 C 197.691,19.8966 194.358,21.2299 190.5,21.5C 193.518,19.6001 196.851,18.2667 200.5,17.5 Z"/></g>
<g><path style="opacity:1" fill="#de3438" d="M 247.5,15.5 C 253.111,16.1448 258.111,18.1448 262.5,21.5C 259.482,21.2962 256.482,20.9629 253.5,20.5C 253.5,19.5 253.5,18.5 253.5,17.5C 250.918,17.9746 248.918,17.3079 247.5,15.5 Z"/></g>
<g><path style="opacity:0.655" fill="#ce4549" d="M 94.5,22.5 C 87.6457,22.176 80.979,22.5093 74.5,23.5C 71.8333,23.5 69.1667,23.5 66.5,23.5C 72.0999,22.0571 77.9332,21.3905 84,21.5C 87.6833,21.5014 91.1833,21.8348 94.5,22.5 Z"/></g>
<g><path style="opacity:1" fill="#d7383c" d="M 186.5,23.5 C 184.191,26.9966 180.857,28.9966 176.5,29.5C 179.494,27.0002 182.827,25.0002 186.5,23.5 Z"/></g>
<g><path style="opacity:1" fill="#dd353d" d="M 266.5,23.5 C 269.473,25.1468 272.14,27.1468 274.5,29.5C 270.485,29.0865 267.818,27.0865 266.5,23.5 Z"/></g>
<g><path style="opacity:1" fill="#d63939" d="M 62.5,24.5 C 58.1832,26.9405 53.5166,28.6072 48.5,29.5C 52.6953,26.7459 57.3619,25.0792 62.5,24.5 Z"/></g>
<g><path style="opacity:0.918" fill="#d73336" d="M 74.5,23.5 C 80.979,22.5093 87.6457,22.176 94.5,22.5C 101.887,23.0972 108.887,25.0972 115.5,28.5C 116.386,29.325 116.719,30.325 116.5,31.5C 103.025,30.3501 89.6918,31.3501 76.5,34.5C 80.4676,32.2491 84.801,30.7491 89.5,30C 97.1667,29.6667 104.833,29.3333 112.5,29C 100.486,23.8984 87.8189,22.0651 74.5,23.5 Z"/></g>
<g><path style="opacity:0.867" fill="#d83a3b" d="M 48.5,29.5 C 45.3937,32.4563 41.727,34.4563 37.5,35.5C 40.6751,32.6718 44.3418,30.6718 48.5,29.5 Z"/></g>
<g><path style="opacity:0.824" fill="#d84245" d="M 176.5,29.5 C 174.704,31.9 172.37,33.5667 169.5,34.5C 171.296,32.1 173.63,30.4333 176.5,29.5 Z"/></g>
<g><path style="opacity:0.89" fill="#d74948" d="M 76.5,34.5 C 74.2084,36.2671 71.5418,37.2671 68.5,37.5C 70.6845,35.4152 73.3511,34.4152 76.5,34.5 Z"/></g>
<g><path style="opacity:0.933" fill="#d63d41" d="M 169.5,34.5 C 168.089,36.914 166.089,38.5806 163.5,39.5C 164.911,37.086 166.911,35.4194 169.5,34.5 Z"/></g>
<g><path style="opacity:1" fill="#e33431" d="M 64.5,39.5 C 61.2024,41.4854 57.8691,43.4854 54.5,45.5C 55.4132,43.9139 55.4132,42.4139 54.5,41C 56.2251,41.4087 57.8918,41.2421 59.5,40.5C 58.624,39.7492 57.624,39.2492 56.5,39C 59.2205,38.3985 61.8872,38.5651 64.5,39.5 Z"/></g>
<g><path style="opacity:1" fill="#d63b42" d="M 281.5,36.5 C 283.984,38.8003 285.984,41.4669 287.5,44.5C 284.529,42.5574 282.529,39.8908 281.5,36.5 Z"/></g>
<g><path style="opacity:1" fill="#da3739" d="M 163.5,39.5 C 162.5,42.5 160.5,44.5 157.5,45.5C 158.784,42.8826 160.784,40.8826 163.5,39.5 Z"/></g>
<g><path style="opacity:0.71" fill="#d33b3d" d="M 240.5,48.5 C 235.797,48.4372 231.13,48.7705 226.5,49.5C 228.397,48.1952 230.731,47.5286 233.5,47.5C 236.025,47.5034 238.359,47.8367 240.5,48.5 Z"/></g>
<g><path style="opacity:1" fill="#d9363a" d="M 30.5,40.5 C 26.8704,44.631 23.037,48.631 19,52.5C 17.3489,54.4021 17.0155,56.4021 18,58.5C 16.5098,57.2721 15.0098,57.2721 13.5,58.5C 17.7869,51.2126 23.4536,45.2126 30.5,40.5 Z"/></g>
<g><path style="opacity:1" fill="#da3738" d="M 247.5,49.5 C 251.657,48.6574 254.657,49.9908 256.5,53.5C 253.314,52.4031 250.314,51.0697 247.5,49.5 Z"/></g>
<g><path style="opacity:0.89" fill="#d63e43" d="M 154.5,48.5 C 152.118,53.2476 148.784,57.2476 144.5,60.5C 146.882,55.7524 150.216,51.7524 154.5,48.5 Z"/></g>
<g><path style="opacity:0.643" fill="#e3585d" d="M 290.5,49.5 C 291.906,49.9731 292.573,50.9731 292.5,52.5C 291.094,52.0269 290.427,51.0269 290.5,49.5 Z"/></g>
<g><path style="opacity:1" fill="#de3233" d="M 287.5,44.5 C 288.89,45.8993 289.89,47.5659 290.5,49.5C 290.427,51.0269 291.094,52.0269 292.5,52.5C 294.341,54.8485 295.674,57.5152 296.5,60.5C 295.5,60.5 294.5,60.5 293.5,60.5C 291.085,55.4558 289.085,50.1225 287.5,44.5 Z"/></g>
<g><path style="opacity:1" fill="#e23c3d" d="M 50.5,48.5 C 44.9589,53.2158 39.6255,58.2158 34.5,63.5C 33.1341,60.5754 34.1341,58.9087 37.5,58.5C 37.6509,54.686 39.6509,53.0193 43.5,53.5C 43.5,51.8333 43.5,50.1667 43.5,48.5C 45.8333,48.5 48.1667,48.5 50.5,48.5 Z"/></g>
<g><path style="opacity:1" fill="#de3a3a" d="M 226.5,49.5 C 215.591,53.3924 206.257,59.7257 198.5,68.5C 198.5,66.8333 198.5,65.1667 198.5,63.5C 200.144,63.7135 201.644,63.3802 203,62.5C 203.456,61.2559 202.956,60.4226 201.5,60C 202.793,59.51 204.127,59.3433 205.5,59.5C 206.077,56.3551 208.077,54.8551 211.5,55C 211.167,54.6667 210.833,54.3333 210.5,54C 215.608,51.6074 220.941,50.1074 226.5,49.5 Z"/></g>
<g><path style="opacity:0.976" fill="#dc4d49" d="M 260.5,55.5 C 262.749,56.0798 264.415,57.4131 265.5,59.5C 263.251,58.9202 261.585,57.5869 260.5,55.5 Z"/></g>
<g><path style="opacity:0.843" fill="#d8484f" d="M 144.5,60.5 C 144.573,62.0269 143.906,63.0269 142.5,63.5C 142.427,61.9731 143.094,60.9731 144.5,60.5 Z"/></g>
<g><path style="opacity:1" fill="#d63a3d" d="M 13.5,58.5 C 12.892,61.4062 11.5587,63.7396 9.5,65.5C 10.0787,62.6689 11.412,60.3356 13.5,58.5 Z"/></g>
<g><path style="opacity:1" fill="#d9403d" d="M 296.5,61.5 C 298.074,63.1016 298.741,65.1016 298.5,67.5C 296.926,65.8984 296.259,63.8984 296.5,61.5 Z"/></g>
<g><path style="opacity:1" fill="#e13d3f" d="M 34.5,63.5 C 32.5538,67.4394 30.2205,71.106 27.5,74.5C 27.3285,72.5082 27.9951,70.8415 29.5,69.5C 28.9747,68.8076 28.3081,68.3076 27.5,68C 28.7932,67.51 30.1266,67.3433 31.5,67.5C 31.67,66.1779 31.3366,65.0113 30.5,64C 31.7932,63.51 33.1266,63.3433 34.5,63.5 Z"/></g>
<g><path style="opacity:1" fill="#dd4b4d" d="M 272.5,67.5 C 275.083,68.985 276.416,71.3183 276.5,74.5C 274.929,72.3649 273.596,70.0316 272.5,67.5 Z"/></g>
<g><path style="opacity:1" fill="#d23b3e" d="M 298.5,67.5 C 299.924,69.5145 300.59,71.8478 300.5,74.5C 299.076,72.4855 298.41,70.1522 298.5,67.5 Z"/></g>
<g><path style="opacity:1" fill="#d4373f" d="M 7.5,69.5 C 7.66018,71.1992 7.49351,72.8659 7,74.5C 4.85491,79.1315 3.02157,83.7982 1.5,88.5C 2.32406,81.6988 4.32406,75.3655 7.5,69.5 Z"/></g>
<g><path style="opacity:1" fill="#da3d3e" d="M 138.5,69.5 C 138.408,71.8477 137.408,73.5144 135.5,74.5C 135.75,72.326 136.75,70.6594 138.5,69.5 Z"/></g>
<g><path style="opacity:1" fill="#df383a" d="M 194.5,73.5 C 191.486,78.2031 188.486,82.8698 185.5,87.5C 185.201,85.396 185.534,83.396 186.5,81.5C 188.271,80.9646 188.604,80.1313 187.5,79C 188.448,78.5172 189.448,78.3505 190.5,78.5C 190.5,76.8333 190.5,75.1667 190.5,73.5C 191.833,73.5 193.167,73.5 194.5,73.5 Z"/></g>
<g><path style="opacity:1" fill="#dd383d" d="M 135.5,74.5 C 135.784,77.8573 134.451,80.1906 131.5,81.5C 132.079,78.6689 133.412,76.3356 135.5,74.5 Z"/></g>
<g><path style="opacity:1" fill="#df4546" d="M 276.5,75.5 C 277.496,75.4142 278.329,75.7476 279,76.5C 279.494,78.1341 279.66,79.8008 279.5,81.5C 278.514,79.5739 277.514,77.5739 276.5,75.5 Z"/></g>
<g><path style="opacity:0.69" fill="#df575b" d="M 26.5,78.5 C 26.0113,79.9952 25.3446,81.3285 24.5,82.5C 24.1568,80.5168 24.8235,79.1834 26.5,78.5 Z"/></g>
<g><path style="opacity:0.945" fill="#d53639" d="M 24.5,82.5 C 22.192,90.9935 21.192,99.6602 21.5,108.5C 20.3177,100.638 20.4844,92.638 22,84.5C 22.7083,83.6195 23.5416,82.9528 24.5,82.5 Z"/></g>
<g><path style="opacity:0.938" fill="#d43637" d="M 300.5,75.5 C 301.167,77.1667 301.833,78.8333 302.5,80.5C 302.5,89.1667 302.5,97.8333 302.5,106.5C 301.833,108.167 301.167,109.833 300.5,111.5C 301.773,99.5041 301.773,87.5041 300.5,75.5 Z"/></g>
<g><path style="opacity:1" fill="#e03737" d="M 185.5,87.5 C 182.675,94.4843 179.341,101.151 175.5,107.5C 175.201,105.396 175.534,103.396 176.5,101.5C 178.591,98.6043 180.258,95.4376 181.5,92C 180.99,90.1739 180.156,90.0072 179,91.5C 178.99,88.6005 180.323,87.9338 183,89.5C 183.417,88.244 184.25,87.5774 185.5,87.5 Z"/></g>
<g><path style="opacity:1" fill="#df2a2d" d="M 131.5,81.5 C 131.421,82.9305 131.754,84.2638 132.5,85.5C 128.587,89.6467 126.42,94.6467 126,100.5C 124.612,100.214 123.112,100.548 121.5,101.5C 124.325,94.5157 127.659,87.849 131.5,81.5 Z"/></g>
<g><path style="opacity:0.976" fill="#da3a3c" d="M 279.5,81.5 C 280.222,81.9175 280.722,82.5842 281,83.5C 281.623,87.9865 282.123,92.4865 282.5,97C 282.579,100.451 281.913,103.618 280.5,106.5C 281.629,98.129 281.296,89.7957 279.5,81.5 Z"/></g>
<g><path style="opacity:1" fill="#df3535" d="M 175.5,108.5 C 173.738,112.362 171.738,116.028 169.5,119.5C 170.127,116.911 170.127,114.411 169.5,112C 171.034,110.065 173.034,108.899 175.5,108.5 Z"/></g>
<g><path style="opacity:1" fill="#db373a" d="M 21.5,108.5 C 22.9354,113.473 24.6021,118.473 26.5,123.5C 25.5041,123.586 24.6708,123.252 24,122.5C 22.2748,117.988 21.4415,113.321 21.5,108.5 Z"/></g>
<g><path style="opacity:1" fill="#dc3640" d="M 116.5,111.5 C 117.084,114.285 116.084,115.952 113.5,116.5C 113.75,114.326 114.75,112.659 116.5,111.5 Z"/></g>
<g><path style="opacity:0.643" fill="#cf464c" d="M 113.5,116.5 C 113.573,118.027 112.906,119.027 111.5,119.5C 111.427,117.973 112.094,116.973 113.5,116.5 Z"/></g>
<g><path style="opacity:1" fill="#dc3639" d="M 279.5,111.5 C 279.665,114.518 279.498,117.518 279,120.5C 278.667,120.167 278.333,119.833 278,119.5C 276.531,123.477 274.365,126.81 271.5,129.5C 274.205,123.432 276.872,117.432 279.5,111.5 Z"/></g>
<g><path style="opacity:1" fill="#d53d3d" d="M 1.5,120.5 C 4.52477,126.074 6.52477,132.074 7.5,138.5C 4.53282,132.932 2.53282,126.932 1.5,120.5 Z"/></g>
<g><path style="opacity:0.824" fill="#db4d53" d="M 28.5,127.5 C 29.9063,127.973 30.573,128.973 30.5,130.5C 29.0937,130.027 28.427,129.027 28.5,127.5 Z"/></g>
<g><path style="opacity:0.91" fill="#d64443" d="M 108.5,123.5 C 107.569,127.429 105.236,130.095 101.5,131.5C 103.862,128.808 106.196,126.141 108.5,123.5 Z"/></g>
<g><path style="opacity:1" fill="#e23235" d="M 168.5,121.5 C 164.895,128.391 160.562,134.725 155.5,140.5C 155.539,139.417 155.873,138.417 156.5,137.5C 155.975,136.808 155.308,136.308 154.5,136C 155.793,135.51 157.127,135.343 158.5,135.5C 157.68,131.855 159.013,129.522 162.5,128.5C 163.228,125.788 164.061,123.121 165,120.5C 166.011,121.337 167.178,121.67 168.5,121.5 Z"/></g>
<g><path style="opacity:0.976" fill="#de5053" d="M 30.5,130.5 C 32.8333,132.167 34.8333,134.167 36.5,136.5C 33.5,135.5 31.5,133.5 30.5,130.5 Z"/></g>
<g><path style="opacity:0.757" fill="#d9444b" d="M 271.5,129.5 C 270.864,131.795 269.531,133.461 267.5,134.5C 268.124,132.246 269.457,130.579 271.5,129.5 Z"/></g>
<g><path style="opacity:1" fill="#d93d3f" d="M 300.5,113.5 C 299.046,121.542 296.046,128.875 291.5,135.5C 294.121,127.962 297.121,120.629 300.5,113.5 Z"/></g>
<g><path style="opacity:0.8" fill="#d94c4f" d="M 101.5,131.5 C 101.267,133.062 100.6,134.395 99.5,135.5C 98.078,136.925 96.4113,137.925 94.5,138.5C 96.5,135.833 98.8333,133.5 101.5,131.5 Z"/></g>
<g><path style="opacity:1" fill="#e22d2f" d="M 99.5,135.5 C 99.6495,136.552 99.4828,137.552 99,138.5C 97.2663,139.249 95.433,139.749 93.5,140C 92.6634,141.011 92.33,142.178 92.5,143.5C 90.5,143.5 88.5,143.5 86.5,143.5C 89.1586,141.836 91.8252,140.17 94.5,138.5C 96.4113,137.925 98.078,136.925 99.5,135.5 Z"/></g>
<g><path style="opacity:1" fill="#e43136" d="M 290.5,137.5 C 288.109,142.279 284.776,146.279 280.5,149.5C 280.64,147.876 279.973,146.71 278.5,146C 280.134,145.506 281.801,145.34 283.5,145.5C 283.095,143.35 282.595,141.35 282,139.5C 283.395,138.185 284.395,138.519 285,140.5C 286.618,140.111 287.785,138.778 288.5,136.5C 289.183,136.863 289.85,137.196 290.5,137.5 Z"/></g>
<g><path style="opacity:1" fill="#dc3333" d="M 267.5,134.5 C 266.881,138.761 264.548,141.428 260.5,142.5C 262.372,139.418 264.705,136.751 267.5,134.5 Z"/></g>
<g><path style="opacity:0.824" fill="#d94446" d="M 7.5,139.5 C 10.7522,142.327 12.7522,145.993 13.5,150.5C 10.7396,147.317 8.73956,143.651 7.5,139.5 Z"/></g>
<g><path style="opacity:1" fill="#d33b3b" d="M 41.5,140.5 C 44.2028,142.181 46.8695,143.847 49.5,145.5C 45.488,145.797 42.8214,144.13 41.5,140.5 Z"/></g>
<g><path style="opacity:0.843" fill="#d63b3c" d="M 86.5,143.5 C 84.4093,146.53 81.4093,147.864 77.5,147.5C 80.4497,146.259 83.4497,144.926 86.5,143.5 Z"/></g>
<g><path style="opacity:0.867" fill="#d93f41" d="M 54.5,147.5 C 62.1595,148.793 69.8261,148.793 77.5,147.5C 74.4018,148.821 70.9018,149.488 67,149.5C 63.5,149.333 60,149.167 56.5,149C 55.5842,148.722 54.9175,148.222 54.5,147.5 Z"/></g>
<g><path style="opacity:0.867" fill="#d7403e" d="M 260.5,142.5 C 258.037,146.3 254.704,148.967 250.5,150.5C 253.539,147.46 256.873,144.794 260.5,142.5 Z"/></g>
<g><path style="opacity:1" fill="#e14744" d="M 146.5,150.5 C 145.92,152.749 144.587,154.415 142.5,155.5C 141.756,152.05 143.09,150.384 146.5,150.5 Z"/></g>
<g><path style="opacity:1" fill="#e23133" d="M 279.5,150.5 C 272.913,158.13 264.913,163.796 255.5,167.5C 255.577,166.25 256.244,165.417 257.5,165C 256.549,164.282 256.383,163.449 257,162.5C 258.699,163.406 260.533,163.739 262.5,163.5C 262.5,162.5 262.5,161.5 262.5,160.5C 263.833,160.5 265.167,160.5 266.5,160.5C 266.5,159.167 266.5,157.833 266.5,156.5C 269.797,156.671 270.131,156.005 267.5,154.5C 269.044,153.378 270.377,153.711 271.5,155.5C 272.924,151.8 275.591,150.134 279.5,150.5 Z"/></g>
<g><path style="opacity:0.69" fill="#d54846" d="M 142.5,155.5 C 141.71,156.401 140.71,157.068 139.5,157.5C 139.821,155.952 140.821,155.285 142.5,155.5 Z"/></g>
<g><path style="opacity:1" fill="#d83a3e" d="M 244.5,154.5 C 242.063,157.719 238.73,159.386 234.5,159.5C 237.614,157.458 240.948,155.791 244.5,154.5 Z"/></g>
<g><path style="opacity:1" fill="#da4141" d="M 19.5,159.5 C 22.179,159.525 23.5123,160.858 23.5,163.5C 21.8333,162.5 20.5,161.167 19.5,159.5 Z"/></g>
<g><path style="opacity:1" fill="#d7383f" d="M 234.5,159.5 C 232.824,161.834 230.491,162.834 227.5,162.5C 229.509,160.935 231.843,159.935 234.5,159.5 Z"/></g>
<g><path style="opacity:1" fill="#dd3834" d="M 135.5,161.5 C 133.14,163.853 130.473,165.853 127.5,167.5C 127.5,166.167 127.5,164.833 127.5,163.5C 128.833,163.5 130.167,163.5 131.5,163.5C 131.608,159.334 132.941,158.667 135.5,161.5 Z"/></g>
<g><path style="opacity:0.867" fill="#d9494b" d="M 23.5,163.5 C 26.4065,164.073 28.4065,165.739 29.5,168.5C 26.9108,167.581 24.9108,165.914 23.5,163.5 Z"/></g>
<g><path style="opacity:1" fill="#e6272c" d="M 47.5,179.5 C 40.4899,177.336 34.4899,173.669 29.5,168.5C 31.8654,169.008 34.1987,169.675 36.5,170.5C 37.9505,169.345 38.9505,167.845 39.5,166C 43.4918,164.823 45.1584,166.323 44.5,170.5C 42.4099,170.45 41.0766,171.45 40.5,173.5C 43.4524,174.805 45.7857,176.805 47.5,179.5 Z"/></g>
<g><path style="opacity:0.782" fill="#d5363a" d="M 227.5,162.5 C 226.571,163.315 225.571,164.148 224.5,165C 212.591,166.906 200.591,167.906 188.5,168C 189.056,168.383 189.389,168.883 189.5,169.5C 187.088,169.306 186.088,167.973 186.5,165.5C 200.332,167.049 213.998,166.049 227.5,162.5 Z"/></g>
<g><path style="opacity:1" fill="#dc3f3f" d="M 127.5,167.5 C 122.953,170.941 117.953,173.608 112.5,175.5C 114.511,173.661 116.844,172.161 119.5,171C 118.833,170.667 118.167,170.333 117.5,170C 120.89,169.256 124.223,168.423 127.5,167.5 Z"/></g>
<g><path style="opacity:1" fill="#d5373c" d="M 189.5,169.5 C 193.714,170.238 197.714,171.571 201.5,173.5C 197.085,173.139 193.085,171.806 189.5,169.5 Z"/></g>
<g><path style="opacity:1" fill="#dd3036" d="M 255.5,167.5 C 249.921,170.471 243.921,172.471 237.5,173.5C 236.5,173.5 235.5,173.5 234.5,173.5C 234.611,172.883 234.944,172.383 235.5,172C 239.535,171.909 243.202,170.743 246.5,168.5C 249.428,167.516 252.428,167.183 255.5,167.5 Z"/></g>
<g><path style="opacity:0.843" fill="#cd3439" d="M 234.5,173.5 C 235.5,173.5 236.5,173.5 237.5,173.5C 231.566,174.963 225.399,175.63 219,175.5C 214.985,175.499 211.151,175.165 207.5,174.5C 216.524,174.642 225.524,174.308 234.5,173.5 Z"/></g>
<g><path style="opacity:0.978" fill="#d64341" d="M 108.5,177.5 C 106.786,178.738 104.786,179.405 102.5,179.5C 103.99,177.72 105.99,177.054 108.5,177.5 Z"/></g>
<g><path style="opacity:0.933" fill="#da464d" d="M 47.5,179.5 C 50.716,179.345 53.3826,180.345 55.5,182.5C 52.6027,181.871 49.936,180.871 47.5,179.5 Z"/></g>
<g><path style="opacity:0.978" fill="#d4383d" d="M 102.5,179.5 C 97.2413,182.089 91.5747,183.422 85.5,183.5C 85.6107,182.883 85.944,182.383 86.5,182C 91.951,181.637 97.2844,180.804 102.5,179.5 Z"/></g>
</svg>
