<?xml version="1.0" encoding="UTF-8"?>
<!DOCTYPE svg PUBLIC "-//W3C//DTD SVG 1.1//EN" "http://www.w3.org/Graphics/SVG/1.1/DTD/svg11.dtd">
<svg xmlns="http://www.w3.org/2000/svg" version="1.1" width="872px" height="197px" style="shape-rendering:geometricPrecision; text-rendering:geometricPrecision; image-rendering:optimizeQuality; fill-rule:evenodd; clip-rule:evenodd" xmlns:xlink="http://www.w3.org/1999/xlink">
<g><path style="opacity:1" fill="#dd3537" d="M 243.5,13.5 C 244.833,14.1667 246.167,14.8333 247.5,15.5C 235.849,14.593 224.183,14.593 212.5,15.5C 222.613,12.5856 232.946,11.919 243.5,13.5 Z"/></g>
<g><path style="opacity:1" fill="#ec1e24" d="M 247.5,15.5 C 249.167,15.5 250.833,15.5 252.5,15.5C 253.918,17.3079 255.918,17.9746 258.5,17.5C 258.5,18.5 258.5,19.5 258.5,20.5C 261.482,20.9629 264.482,21.2962 267.5,21.5C 269.153,21.6596 270.486,22.3263 271.5,23.5C 272.818,27.0865 275.485,29.0865 279.5,29.5C 282.167,31.5 284.5,33.8333 286.5,36.5C 287.529,39.8908 289.529,42.5574 292.5,44.5C 294.085,50.1225 296.085,55.4558 298.5,60.5C 299.5,60.5 300.5,60.5 301.5,60.5C 301.5,60.8333 301.5,61.1667 301.5,61.5C 301.259,63.8984 301.926,65.8984 303.5,67.5C 303.41,70.1522 304.076,72.4855 305.5,74.5C 305.5,74.8333 305.5,75.1667 305.5,75.5C 306.773,87.5041 306.773,99.5041 305.5,111.5C 305.5,112.167 305.5,112.833 305.5,113.5C 302.121,120.629 299.121,127.962 296.5,135.5C 296.167,136.167 295.833,136.833 295.5,137.5C 294.85,137.196 294.183,136.863 293.5,136.5C 292.785,138.778 291.618,140.111 290,140.5C 289.395,138.519 288.395,138.185 287,139.5C 287.595,141.35 288.095,143.35 288.5,145.5C 286.801,145.34 285.134,145.506 283.5,146C 284.973,146.71 285.64,147.876 285.5,149.5C 285.5,150.167 285.167,150.5 284.5,150.5C 280.591,150.134 277.924,151.8 276.5,155.5C 275.377,153.711 274.044,153.378 272.5,154.5C 275.131,156.005 274.797,156.671 271.5,156.5C 271.5,157.833 271.5,159.167 271.5,160.5C 270.167,160.5 268.833,160.5 267.5,160.5C 267.5,161.5 267.5,162.5 267.5,163.5C 265.533,163.739 263.699,163.406 262,162.5C 261.383,163.449 261.549,164.282 262.5,165C 261.244,165.417 260.577,166.25 260.5,167.5C 257.428,167.183 254.428,167.516 251.5,168.5C 248.202,170.743 244.535,171.909 240.5,172C 239.944,172.383 239.611,172.883 239.5,173.5C 230.524,174.308 221.524,174.642 212.5,174.5C 210.265,174.795 208.265,174.461 206.5,173.5C 202.714,171.571 198.714,170.238 194.5,169.5C 194.389,168.883 194.056,168.383 193.5,168C 205.591,167.906 217.591,166.906 229.5,165C 230.571,164.148 231.571,163.315 232.5,162.5C 235.491,162.834 237.824,161.834 239.5,159.5C 243.73,159.386 247.063,157.719 249.5,154.5C 251.147,152.674 253.147,151.34 255.5,150.5C 259.704,148.967 263.037,146.3 265.5,142.5C 269.548,141.428 271.881,138.761 272.5,134.5C 274.531,133.461 275.864,131.795 276.5,129.5C 279.365,126.81 281.531,123.477 283,119.5C 283.333,119.833 283.667,120.167 284,120.5C 284.498,117.518 284.665,114.518 284.5,111.5C 284.216,109.585 284.549,107.919 285.5,106.5C 286.913,103.618 287.579,100.451 287.5,97C 287.123,92.4865 286.623,87.9865 286,83.5C 285.722,82.5842 285.222,81.9175 284.5,81.5C 284.66,79.8008 284.494,78.1341 284,76.5C 283.329,75.7476 282.496,75.4142 281.5,75.5C 281.5,75.1667 281.5,74.8333 281.5,74.5C 281.416,71.3183 280.083,68.985 277.5,67.5C 275.196,64.8587 272.862,62.192 270.5,59.5C 269.415,57.4131 267.749,56.0798 265.5,55.5C 263.847,55.3404 262.514,54.6737 261.5,53.5C 259.657,49.9908 256.657,48.6574 252.5,49.5C 250.097,49.552 247.764,49.2186 245.5,48.5C 243.359,47.8367 241.025,47.5034 238.5,47.5C 235.731,47.5286 233.397,48.1952 231.5,49.5C 225.941,50.1074 220.608,51.6074 215.5,54C 215.833,54.3333 216.167,54.6667 216.5,55C 213.077,54.8551 211.077,56.3551 210.5,59.5C 209.127,59.3433 207.793,59.51 206.5,60C 207.956,60.4226 208.456,61.2559 208,62.5C 206.644,63.3802 205.144,63.7135 203.5,63.5C 203.5,65.1667 203.5,66.8333 203.5,68.5C 202.136,70.1911 200.803,71.8577 199.5,73.5C 198.167,73.5 196.833,73.5 195.5,73.5C 195.5,75.1667 195.5,76.8333 195.5,78.5C 194.448,78.3505 193.448,78.5172 192.5,79C 193.604,80.1313 193.271,80.9646 191.5,81.5C 190.534,83.396 190.201,85.396 190.5,87.5C 189.25,87.5774 188.417,88.244 188,89.5C 185.323,87.9338 183.99,88.6005 184,91.5C 185.156,90.0072 185.99,90.1739 186.5,92C 185.258,95.4376 183.591,98.6043 181.5,101.5C 180.534,103.396 180.201,105.396 180.5,107.5C 180.5,107.833 180.5,108.167 180.5,108.5C 178.034,108.899 176.034,110.065 174.5,112C 175.127,114.411 175.127,116.911 174.5,119.5C 174.167,120.167 173.833,120.833 173.5,121.5C 172.178,121.67 171.011,121.337 170,120.5C 169.061,123.121 168.228,125.788 167.5,128.5C 164.013,129.522 162.68,131.855 163.5,135.5C 162.127,135.343 160.793,135.51 159.5,136C 160.308,136.308 160.975,136.808 161.5,137.5C 160.873,138.417 160.539,139.417 160.5,140.5C 158.212,144.456 155.212,147.789 151.5,150.5C 148.09,150.384 146.756,152.05 147.5,155.5C 145.821,155.285 144.821,155.952 144.5,157.5C 143.5,159.167 142.167,160.5 140.5,161.5C 137.941,158.667 136.608,159.334 136.5,163.5C 135.167,163.5 133.833,163.5 132.5,163.5C 132.5,164.833 132.5,166.167 132.5,167.5C 129.223,168.423 125.89,169.256 122.5,170C 123.167,170.333 123.833,170.667 124.5,171C 121.844,172.161 119.511,173.661 117.5,175.5C 116.486,176.674 115.153,177.34 113.5,177.5C 110.99,177.054 108.99,177.72 107.5,179.5C 102.284,180.804 96.951,181.637 91.5,182C 90.944,182.383 90.6107,182.883 90.5,183.5C 80.5675,184.968 70.5675,184.635 60.5,182.5C 58.3826,180.345 55.716,179.345 52.5,179.5C 50.7857,176.805 48.4524,174.805 45.5,173.5C 46.0766,171.45 47.4099,170.45 49.5,170.5C 50.1584,166.323 48.4918,164.823 44.5,166C 43.9505,167.845 42.9505,169.345 41.5,170.5C 39.1987,169.675 36.8654,169.008 34.5,168.5C 33.4065,165.739 31.4065,164.073 28.5,163.5C 28.5123,160.858 27.179,159.525 24.5,159.5C 21.7559,157.016 19.7559,154.016 18.5,150.5C 17.7522,145.993 15.7522,142.327 12.5,139.5C 12.5,139.167 12.5,138.833 12.5,138.5C 11.5248,132.074 9.52477,126.074 6.5,120.5C 5.75367,116.201 5.087,111.868 4.5,107.5C 4.79513,101.276 5.4618,94.9429 6.5,88.5C 8.02157,83.7982 9.85491,79.1315 12,74.5C 12.4935,72.8659 12.6602,71.1992 12.5,69.5C 12.6596,67.847 13.3263,66.5137 14.5,65.5C 16.5587,63.7396 17.892,61.4062 18.5,58.5C 20.0098,57.2721 21.5098,57.2721 23,58.5C 22.0155,56.4021 22.3489,54.4021 24,52.5C 28.037,48.631 31.8704,44.631 35.5,40.5C 37.2964,38.1 39.6298,36.4333 42.5,35.5C 46.727,34.4563 50.3937,32.4563 53.5,29.5C 58.5166,28.6072 63.1832,26.9405 67.5,24.5C 68.5676,23.5655 69.901,23.2322 71.5,23.5C 74.1667,23.5 76.8333,23.5 79.5,23.5C 92.8189,22.0651 105.486,23.8984 117.5,29C 109.833,29.3333 102.167,29.6667 94.5,30C 89.801,30.7491 85.4676,32.2491 81.5,34.5C 78.3511,34.4152 75.6845,35.4152 73.5,37.5C 72.4863,38.6737 71.153,39.3404 69.5,39.5C 66.8872,38.5651 64.2205,38.3985 61.5,39C 62.624,39.2492 63.624,39.7492 64.5,40.5C 62.8918,41.2421 61.2251,41.4087 59.5,41C 60.4132,42.4139 60.4132,43.9139 59.5,45.5C 58.205,46.4884 56.8717,47.4884 55.5,48.5C 53.1667,48.5 50.8333,48.5 48.5,48.5C 48.5,50.1667 48.5,51.8333 48.5,53.5C 44.6509,53.0193 42.6509,54.686 42.5,58.5C 39.1341,58.9087 38.1341,60.5754 39.5,63.5C 38.1266,63.3433 36.7932,63.51 35.5,64C 36.3366,65.0113 36.67,66.1779 36.5,67.5C 35.1266,67.3433 33.7932,67.51 32.5,68C 33.3081,68.3076 33.9747,68.8076 34.5,69.5C 32.9951,70.8415 32.3285,72.5082 32.5,74.5C 32.1667,75.8333 31.8333,77.1667 31.5,78.5C 29.8235,79.1834 29.1568,80.5168 29.5,82.5C 28.5416,82.9528 27.7083,83.6195 27,84.5C 25.4844,92.638 25.3177,100.638 26.5,108.5C 26.4415,113.321 27.2748,117.988 29,122.5C 29.6708,123.252 30.5041,123.586 31.5,123.5C 32.6737,124.514 33.3404,125.847 33.5,127.5C 33.427,129.027 34.0937,130.027 35.5,130.5C 36.5,133.5 38.5,135.5 41.5,136.5C 43.1667,137.833 44.8333,139.167 46.5,140.5C 47.8214,144.13 50.488,145.797 54.5,145.5C 56.403,145.796 58.0697,146.463 59.5,147.5C 59.9175,148.222 60.5842,148.722 61.5,149C 65,149.167 68.5,149.333 72,149.5C 75.9018,149.488 79.4018,148.821 82.5,147.5C 86.4093,147.864 89.4093,146.53 91.5,143.5C 93.5,143.5 95.5,143.5 97.5,143.5C 97.33,142.178 97.6634,141.011 98.5,140C 100.433,139.749 102.266,139.249 104,138.5C 104.483,137.552 104.649,136.552 104.5,135.5C 105.6,134.395 106.267,133.062 106.5,131.5C 110.236,130.095 112.569,127.429 113.5,123.5C 114.026,121.77 115.026,120.436 116.5,119.5C 117.906,119.027 118.573,118.027 118.5,116.5C 121.084,115.952 122.084,114.285 121.5,111.5C 122.659,107.849 124.326,104.515 126.5,101.5C 128.112,100.548 129.612,100.214 131,100.5C 131.42,94.6467 133.587,89.6467 137.5,85.5C 136.754,84.2638 136.421,82.9305 136.5,81.5C 139.451,80.1906 140.784,77.8573 140.5,74.5C 142.408,73.5144 143.408,71.8477 143.5,69.5C 144.34,67.1475 145.674,65.1475 147.5,63.5C 148.906,63.0269 149.573,62.0269 149.5,60.5C 153.784,57.2476 157.118,53.2476 159.5,48.5C 159.5,46.5 160.5,45.5 162.5,45.5C 165.5,44.5 167.5,42.5 168.5,39.5C 171.089,38.5806 173.089,36.914 174.5,34.5C 177.37,33.5667 179.704,31.9 181.5,29.5C 185.857,28.9966 189.191,26.9966 191.5,23.5C 192.514,22.3263 193.847,21.6596 195.5,21.5C 199.358,21.2299 202.691,19.8966 205.5,17.5C 207.527,17.6621 209.527,17.4955 211.5,17C 212.056,16.6174 212.389,16.1174 212.5,15.5C 224.183,14.593 235.849,14.593 247.5,15.5 Z"/></g>
<g><path style="opacity:0.843" fill="#d54549" d="M 243.5,13.5 C 246.781,13.4203 249.781,14.087 252.5,15.5C 250.833,15.5 249.167,15.5 247.5,15.5C 246.167,14.8333 244.833,14.1667 243.5,13.5 Z"/></g>
<g><path style="opacity:0.955" fill="#000000" d="M 754.5,15.5 C 758.534,15.5045 762.534,15.8379 766.5,16.5C 767.275,22.1531 767.942,27.8197 768.5,33.5C 765.844,32.842 763.178,32.1754 760.5,31.5C 758.626,31.3898 757.126,32.0564 756,33.5C 755.08,36.1013 754.413,38.7679 754,41.5C 753.5,51.1609 753.334,60.8276 753.5,70.5C 758.167,70.5 762.833,70.5 767.5,70.5C 767.5,75.1667 767.5,79.8333 767.5,84.5C 762.5,84.5 757.5,84.5 752.5,84.5C 752.333,104.503 752.5,124.503 753,144.5C 753.178,149.627 754.012,154.627 755.5,159.5C 746.859,160.498 738.192,160.831 729.5,160.5C 729.933,157.834 730.433,155.168 731,152.5C 731.5,129.836 731.667,107.169 731.5,84.5C 728.167,84.5 724.833,84.5 721.5,84.5C 721.5,79.8333 721.5,75.1667 721.5,70.5C 724.833,70.5 728.167,70.5 731.5,70.5C 731.21,57.9448 732.71,45.6115 736,33.5C 737.871,28.9188 740.371,24.7522 743.5,21C 746.99,18.588 750.657,16.7547 754.5,15.5 Z"/></g>
<g><path style="opacity:0.976" fill="#d23637" d="M 212.5,15.5 C 212.389,16.1174 212.056,16.6174 211.5,17C 209.527,17.4955 207.527,17.6621 205.5,17.5C 207.657,16.5933 209.99,15.9267 212.5,15.5 Z"/></g>
<g><path style="opacity:0.947" fill="#000000" d="M 341.5,16.5 C 357.485,14.3689 371.652,18.3689 384,28.5C 385.331,37.1412 385.998,45.8079 386,54.5C 379.737,44.9027 371.57,37.4027 361.5,32C 344.385,27.252 334.385,33.752 331.5,51.5C 331.755,58.7799 334.755,64.6132 340.5,69C 354.25,74.8056 367.916,80.8056 381.5,87C 391.106,97.2339 394.94,109.401 393,123.5C 387.876,151.645 371.042,164.811 342.5,163C 328.918,160.627 317.418,154.46 308,144.5C 307.161,135.78 307.495,127.113 309,118.5C 316.3,131.801 326.8,141.635 340.5,148C 353.685,151.608 363.518,147.442 370,135.5C 373.72,122.106 369.22,112.606 356.5,107C 345.833,103 335.167,99 324.5,95C 313.318,86.9672 307.985,75.9672 308.5,62C 309.061,38.9791 320.061,23.8125 341.5,16.5 Z"/></g>
<g><path style="opacity:1" fill="#d73c3e" d="M 205.5,17.5 C 202.691,19.8966 199.358,21.2299 195.5,21.5C 198.518,19.6001 201.851,18.2667 205.5,17.5 Z"/></g>
<g><path style="opacity:1" fill="#de3438" d="M 252.5,15.5 C 258.111,16.1448 263.111,18.1448 267.5,21.5C 264.482,21.2962 261.482,20.9629 258.5,20.5C 258.5,19.5 258.5,18.5 258.5,17.5C 255.918,17.9746 253.918,17.3079 252.5,15.5 Z"/></g>
<g><path style="opacity:0.655" fill="#ce4549" d="M 99.5,22.5 C 92.6457,22.176 85.979,22.5093 79.5,23.5C 76.8333,23.5 74.1667,23.5 71.5,23.5C 77.0999,22.0571 82.9332,21.3905 89,21.5C 92.6833,21.5014 96.1833,21.8348 99.5,22.5 Z"/></g>
<g><path style="opacity:1" fill="#d7383c" d="M 191.5,23.5 C 189.191,26.9966 185.857,28.9966 181.5,29.5C 184.494,27.0002 187.827,25.0002 191.5,23.5 Z"/></g>
<g><path style="opacity:1" fill="#dd353d" d="M 271.5,23.5 C 274.473,25.1468 277.14,27.1468 279.5,29.5C 275.485,29.0865 272.818,27.0865 271.5,23.5 Z"/></g>
<g><path style="opacity:1" fill="#d63939" d="M 67.5,24.5 C 63.1832,26.9405 58.5166,28.6072 53.5,29.5C 57.6953,26.7459 62.3619,25.0792 67.5,24.5 Z"/></g>
<g><path style="opacity:0.918" fill="#d73336" d="M 79.5,23.5 C 85.979,22.5093 92.6457,22.176 99.5,22.5C 106.887,23.0972 113.887,25.0972 120.5,28.5C 121.386,29.325 121.719,30.325 121.5,31.5C 108.025,30.3501 94.6918,31.3501 81.5,34.5C 85.4676,32.2491 89.801,30.7491 94.5,30C 102.167,29.6667 109.833,29.3333 117.5,29C 105.486,23.8984 92.8189,22.0651 79.5,23.5 Z"/></g>
<g><path style="opacity:0.933" fill="#000000" d="M 695.5,29.5 C 709.291,27.1296 715.458,32.7963 714,46.5C 711.206,56.084 705.04,59.2506 695.5,56C 692.667,54.5 690.5,52.3333 689,49.5C 686.612,41.0936 688.778,34.4269 695.5,29.5 Z"/></g>
<g><path style="opacity:0.867" fill="#d83a3b" d="M 53.5,29.5 C 50.3937,32.4563 46.727,34.4563 42.5,35.5C 45.6751,32.6718 49.3418,30.6718 53.5,29.5 Z"/></g>
<g><path style="opacity:0.824" fill="#d84245" d="M 181.5,29.5 C 179.704,31.9 177.37,33.5667 174.5,34.5C 176.296,32.1 178.63,30.4333 181.5,29.5 Z"/></g>
<g><path style="opacity:0.89" fill="#d74948" d="M 81.5,34.5 C 79.2084,36.2671 76.5418,37.2671 73.5,37.5C 75.6845,35.4152 78.3511,34.4152 81.5,34.5 Z"/></g>
<g><path style="opacity:0.933" fill="#d63d41" d="M 174.5,34.5 C 173.089,36.914 171.089,38.5806 168.5,39.5C 169.911,37.086 171.911,35.4194 174.5,34.5 Z"/></g>
<g><path style="opacity:1" fill="#e33431" d="M 69.5,39.5 C 66.2024,41.4854 62.8691,43.4854 59.5,45.5C 60.4132,43.9139 60.4132,42.4139 59.5,41C 61.2251,41.4087 62.8918,41.2421 64.5,40.5C 63.624,39.7492 62.624,39.2492 61.5,39C 64.2205,38.3985 66.8872,38.5651 69.5,39.5 Z"/></g>
<g><path style="opacity:1" fill="#d63b42" d="M 286.5,36.5 C 288.984,38.8003 290.984,41.4669 292.5,44.5C 289.529,42.5574 287.529,39.8908 286.5,36.5 Z"/></g>
<g><path style="opacity:1" fill="#da3739" d="M 168.5,39.5 C 167.5,42.5 165.5,44.5 162.5,45.5C 163.784,42.8826 165.784,40.8826 168.5,39.5 Z"/></g>
<g><path style="opacity:0.71" fill="#d33b3d" d="M 245.5,48.5 C 240.797,48.4372 236.13,48.7705 231.5,49.5C 233.397,48.1952 235.731,47.5286 238.5,47.5C 241.025,47.5034 243.359,47.8367 245.5,48.5 Z"/></g>
<g><path style="opacity:1" fill="#d9363a" d="M 35.5,40.5 C 31.8704,44.631 28.037,48.631 24,52.5C 22.3489,54.4021 22.0155,56.4021 23,58.5C 21.5098,57.2721 20.0098,57.2721 18.5,58.5C 22.7869,51.2126 28.4536,45.2126 35.5,40.5 Z"/></g>
<g><path style="opacity:1" fill="#da3738" d="M 252.5,49.5 C 256.657,48.6574 259.657,49.9908 261.5,53.5C 258.314,52.4031 255.314,51.0697 252.5,49.5 Z"/></g>
<g><path style="opacity:0.89" fill="#d63e43" d="M 159.5,48.5 C 157.118,53.2476 153.784,57.2476 149.5,60.5C 151.882,55.7524 155.216,51.7524 159.5,48.5 Z"/></g>
<g><path style="opacity:0.643" fill="#e3585d" d="M 295.5,49.5 C 296.906,49.9731 297.573,50.9731 297.5,52.5C 296.094,52.0269 295.427,51.0269 295.5,49.5 Z"/></g>
<g><path style="opacity:1" fill="#de3233" d="M 292.5,44.5 C 293.89,45.8993 294.89,47.5659 295.5,49.5C 295.427,51.0269 296.094,52.0269 297.5,52.5C 299.341,54.8485 300.674,57.5152 301.5,60.5C 300.5,60.5 299.5,60.5 298.5,60.5C 296.085,55.4558 294.085,50.1225 292.5,44.5 Z"/></g>
<g><path style="opacity:1" fill="#e23c3d" d="M 55.5,48.5 C 49.9589,53.2158 44.6255,58.2158 39.5,63.5C 38.1341,60.5754 39.1341,58.9087 42.5,58.5C 42.6509,54.686 44.6509,53.0193 48.5,53.5C 48.5,51.8333 48.5,50.1667 48.5,48.5C 50.8333,48.5 53.1667,48.5 55.5,48.5 Z"/></g>
<g><path style="opacity:1" fill="#de3a3a" d="M 231.5,49.5 C 220.591,53.3924 211.257,59.7257 203.5,68.5C 203.5,66.8333 203.5,65.1667 203.5,63.5C 205.144,63.7135 206.644,63.3802 208,62.5C 208.456,61.2559 207.956,60.4226 206.5,60C 207.793,59.51 209.127,59.3433 210.5,59.5C 211.077,56.3551 213.077,54.8551 216.5,55C 216.167,54.6667 215.833,54.3333 215.5,54C 220.608,51.6074 225.941,50.1074 231.5,49.5 Z"/></g>
<g><path style="opacity:0.976" fill="#dc4d49" d="M 265.5,55.5 C 267.749,56.0798 269.415,57.4131 270.5,59.5C 268.251,58.9202 266.585,57.5869 265.5,55.5 Z"/></g>
<g><path style="opacity:0.843" fill="#d8484f" d="M 149.5,60.5 C 149.573,62.0269 148.906,63.0269 147.5,63.5C 147.427,61.9731 148.094,60.9731 149.5,60.5 Z"/></g>
<g><path style="opacity:1" fill="#d63a3d" d="M 18.5,58.5 C 17.892,61.4062 16.5587,63.7396 14.5,65.5C 15.0787,62.6689 16.412,60.3356 18.5,58.5 Z"/></g>
<g><path style="opacity:1" fill="#d9403d" d="M 301.5,61.5 C 303.074,63.1016 303.741,65.1016 303.5,67.5C 301.926,65.8984 301.259,63.8984 301.5,61.5 Z"/></g>
<g><path style="opacity:0.953" fill="#000000" d="M 504.5,66.5 C 506.326,89.8121 507.159,113.479 507,137.5C 509.963,149.713 517.129,152.879 528.5,147C 532.423,143.323 534.923,138.823 536,133.5C 536.906,114.061 536.573,94.7279 535,75.5C 542.253,72.3046 549.586,69.3046 557,66.5C 557.333,90.1667 557.667,113.833 558,137.5C 558.125,145.341 559.291,153.008 561.5,160.5C 554.197,161.497 546.863,161.831 539.5,161.5C 539.875,158.603 539.375,155.937 538,153.5C 526.775,163.729 513.942,166.229 499.5,161C 491.338,155.864 486.838,148.364 486,138.5C 485.667,124.5 485.333,110.5 485,96.5C 484.645,89.9303 483.812,83.4303 482.5,77C 489.621,73.0173 496.954,69.5173 504.5,66.5 Z"/></g>
<g><path style="opacity:0.969" fill="#000000" d="M 711.5,66.5 C 712.332,93.6636 712.832,120.997 713,148.5C 713.501,152.51 714.001,156.51 714.5,160.5C 705.827,160.666 697.16,160.5 688.5,160C 689.86,155.637 690.694,151.137 691,146.5C 691.667,127.5 691.667,108.5 691,89.5C 690.736,85.0448 689.902,80.7115 688.5,76.5C 695.997,72.7788 703.663,69.4455 711.5,66.5 Z"/></g>
<g><path style="opacity:1" fill="#e13d3f" d="M 39.5,63.5 C 37.5538,67.4394 35.2205,71.106 32.5,74.5C 32.3285,72.5082 32.9951,70.8415 34.5,69.5C 33.9747,68.8076 33.3081,68.3076 32.5,68C 33.7932,67.51 35.1266,67.3433 36.5,67.5C 36.67,66.1779 36.3366,65.0113 35.5,64C 36.7932,63.51 38.1266,63.3433 39.5,63.5 Z"/></g>
<g><path style="opacity:1" fill="#dd4b4d" d="M 277.5,67.5 C 280.083,68.985 281.416,71.3183 281.5,74.5C 279.929,72.3649 278.596,70.0316 277.5,67.5 Z"/></g>
<g><path style="opacity:0.944" fill="#000000" d="M 581.5,67.5 C 582.822,67.33 583.989,67.6634 585,68.5C 586.6,72.4668 588.1,76.4668 589.5,80.5C 592.692,75.1416 597.025,70.975 602.5,68C 606.594,67.2327 610.594,67.566 614.5,69C 615.574,69.7387 616.241,70.7387 616.5,72C 614.751,78.4977 613.084,84.9977 611.5,91.5C 604.614,87.8606 599.447,89.5272 596,96.5C 595.178,98.7885 594.511,101.122 594,103.5C 592.976,122.567 593.476,141.567 595.5,160.5C 586.833,160.5 578.167,160.5 569.5,160.5C 571.544,136.893 572.044,113.227 571,89.5C 570.104,84.4783 568.604,79.6449 566.5,75C 566.645,74.228 566.978,73.5613 567.5,73C 572.464,71.6291 577.131,69.7957 581.5,67.5 Z"/></g>
<g><path style="opacity:0.948" fill="#000000" d="M 429.5,68.5 C 455.494,66.5779 471.66,78.2446 478,103.5C 482.79,126.82 475.623,145.32 456.5,159C 434.432,168.443 416.265,163.609 402,144.5C 395.821,132.203 393.821,119.203 396,105.5C 400.068,86.6046 411.235,74.2713 429.5,68.5 Z M 433.5,79.5 C 440.656,78.1664 446.156,80.4997 450,86.5C 458.665,105.816 458.665,125.149 450,144.5C 441.644,154.715 432.977,155.048 424,145.5C 421.534,140.768 419.867,135.768 419,130.5C 416.558,114.689 418.892,99.689 426,85.5C 428.114,82.8792 430.614,80.8792 433.5,79.5 Z"/></g>
<g><path style="opacity:0.941" fill="#000000" d="M 645.5,68.5 C 659.091,66.5767 671.758,69.0767 683.5,76C 685.598,82.3821 686.265,88.8821 685.5,95.5C 678.384,87.1087 669.384,82.1087 658.5,80.5C 646.082,82.0805 638.582,89.0805 636,101.5C 633.371,114.479 634.371,127.146 639,139.5C 644.707,148.601 652.874,152.101 663.5,150C 671.512,147.325 678.512,142.992 684.5,137C 685.332,136.312 685.998,136.479 686.5,137.5C 685.699,143.317 684.365,148.983 682.5,154.5C 663.895,166.248 645.228,166.415 626.5,155C 613.649,141.769 608.815,125.936 612,107.5C 615.199,87.4796 626.366,74.4796 645.5,68.5 Z"/></g>
<g><path style="opacity:1" fill="#d23b3e" d="M 303.5,67.5 C 304.924,69.5145 305.59,71.8478 305.5,74.5C 304.076,72.4855 303.41,70.1522 303.5,67.5 Z"/></g>
<g><path style="opacity:0.944" fill="#000000" d="M 797.5,196.5 C 792.5,196.5 787.5,196.5 782.5,196.5C 781.044,191.465 779.377,186.465 777.5,181.5C 777.833,181.167 778.167,180.833 778.5,180.5C 789.395,184.811 798.561,182.477 806,173.5C 808.624,169.752 811.124,165.919 813.5,162C 808.167,161.667 802.833,161.333 797.5,161C 789.607,149.332 784.44,136.499 782,122.5C 779.173,105.204 776.673,87.8704 774.5,70.5C 782.86,70.1688 791.193,70.5021 799.5,71.5C 795.584,100.351 801.417,127.018 817,151.5C 825.232,130.407 830.065,108.574 831.5,86C 830.982,80.8416 830.649,75.6749 830.5,70.5C 836.868,70.1703 843.202,70.5037 849.5,71.5C 845.884,90.5279 842.05,109.528 838,128.5C 834.304,144.255 828.637,159.255 821,173.5C 815.26,183.408 807.426,191.075 797.5,196.5 Z"/></g>
<g><path style="opacity:1" fill="#d4373f" d="M 12.5,69.5 C 12.6602,71.1992 12.4935,72.8659 12,74.5C 9.85491,79.1315 8.02157,83.7982 6.5,88.5C 7.32406,81.6988 9.32406,75.3655 12.5,69.5 Z"/></g>
<g><path style="opacity:1" fill="#da3d3e" d="M 143.5,69.5 C 143.408,71.8477 142.408,73.5144 140.5,74.5C 140.75,72.326 141.75,70.6594 143.5,69.5 Z"/></g>
<g><path style="opacity:1" fill="#df383a" d="M 199.5,73.5 C 196.486,78.2031 193.486,82.8698 190.5,87.5C 190.201,85.396 190.534,83.396 191.5,81.5C 193.271,80.9646 193.604,80.1313 192.5,79C 193.448,78.5172 194.448,78.3505 195.5,78.5C 195.5,76.8333 195.5,75.1667 195.5,73.5C 196.833,73.5 198.167,73.5 199.5,73.5 Z"/></g>
<g><path style="opacity:1" fill="#dd383d" d="M 140.5,74.5 C 140.784,77.8573 139.451,80.1906 136.5,81.5C 137.079,78.6689 138.412,76.3356 140.5,74.5 Z"/></g>
<g><path style="opacity:1" fill="#df4546" d="M 281.5,75.5 C 282.496,75.4142 283.329,75.7476 284,76.5C 284.494,78.1341 284.66,79.8008 284.5,81.5C 283.514,79.5739 282.514,77.5739 281.5,75.5 Z"/></g>
<g><path style="opacity:0.69" fill="#df575b" d="M 31.5,78.5 C 31.0113,79.9952 30.3446,81.3285 29.5,82.5C 29.1568,80.5168 29.8235,79.1834 31.5,78.5 Z"/></g>
<g><path style="opacity:0.945" fill="#d53639" d="M 29.5,82.5 C 27.192,90.9935 26.192,99.6602 26.5,108.5C 25.3177,100.638 25.4844,92.638 27,84.5C 27.7083,83.6195 28.5416,82.9528 29.5,82.5 Z"/></g>
<g><path style="opacity:0.938" fill="#d43637" d="M 305.5,75.5 C 307.04,81.2515 307.706,87.2515 307.5,93.5C 307.706,99.7485 307.04,105.749 305.5,111.5C 306.773,99.5041 306.773,87.5041 305.5,75.5 Z"/></g>
<g><path style="opacity:1" fill="#e03737" d="M 190.5,87.5 C 187.675,94.4843 184.341,101.151 180.5,107.5C 180.201,105.396 180.534,103.396 181.5,101.5C 183.591,98.6043 185.258,95.4376 186.5,92C 185.99,90.1739 185.156,90.0072 184,91.5C 183.99,88.6005 185.323,87.9338 188,89.5C 188.417,88.244 189.25,87.5774 190.5,87.5 Z"/></g>
<g><path style="opacity:1" fill="#df2a2d" d="M 136.5,81.5 C 136.421,82.9305 136.754,84.2638 137.5,85.5C 133.587,89.6467 131.42,94.6467 131,100.5C 129.612,100.214 128.112,100.548 126.5,101.5C 129.325,94.5157 132.659,87.849 136.5,81.5 Z"/></g>
<g><path style="opacity:0.976" fill="#da3a3c" d="M 284.5,81.5 C 285.222,81.9175 285.722,82.5842 286,83.5C 286.623,87.9865 287.123,92.4865 287.5,97C 287.579,100.451 286.913,103.618 285.5,106.5C 286.629,98.129 286.296,89.7957 284.5,81.5 Z"/></g>
<g><path style="opacity:1" fill="#df3535" d="M 180.5,108.5 C 178.738,112.362 176.738,116.028 174.5,119.5C 175.127,116.911 175.127,114.411 174.5,112C 176.034,110.065 178.034,108.899 180.5,108.5 Z"/></g>
<g><path style="opacity:1" fill="#db373a" d="M 26.5,108.5 C 27.9354,113.473 29.6021,118.473 31.5,123.5C 30.5041,123.586 29.6708,123.252 29,122.5C 27.2748,117.988 26.4415,113.321 26.5,108.5 Z"/></g>
<g><path style="opacity:1" fill="#dc3640" d="M 121.5,111.5 C 122.084,114.285 121.084,115.952 118.5,116.5C 118.75,114.326 119.75,112.659 121.5,111.5 Z"/></g>
<g><path style="opacity:0.643" fill="#cf464c" d="M 118.5,116.5 C 118.573,118.027 117.906,119.027 116.5,119.5C 116.427,117.973 117.094,116.973 118.5,116.5 Z"/></g>
<g><path style="opacity:1" fill="#dc3639" d="M 284.5,111.5 C 284.665,114.518 284.498,117.518 284,120.5C 283.667,120.167 283.333,119.833 283,119.5C 281.531,123.477 279.365,126.81 276.5,129.5C 279.205,123.432 281.872,117.432 284.5,111.5 Z"/></g>
<g><path style="opacity:1" fill="#d53d3d" d="M 6.5,120.5 C 9.52477,126.074 11.5248,132.074 12.5,138.5C 9.53282,132.932 7.53282,126.932 6.5,120.5 Z"/></g>
<g><path style="opacity:0.824" fill="#db4d53" d="M 33.5,127.5 C 34.9063,127.973 35.573,128.973 35.5,130.5C 34.0937,130.027 33.427,129.027 33.5,127.5 Z"/></g>
<g><path style="opacity:0.91" fill="#d64443" d="M 113.5,123.5 C 112.569,127.429 110.236,130.095 106.5,131.5C 108.862,128.808 111.196,126.141 113.5,123.5 Z"/></g>
<g><path style="opacity:1" fill="#e23235" d="M 173.5,121.5 C 169.895,128.391 165.562,134.725 160.5,140.5C 160.539,139.417 160.873,138.417 161.5,137.5C 160.975,136.808 160.308,136.308 159.5,136C 160.793,135.51 162.127,135.343 163.5,135.5C 162.68,131.855 164.013,129.522 167.5,128.5C 168.228,125.788 169.061,123.121 170,120.5C 171.011,121.337 172.178,121.67 173.5,121.5 Z"/></g>
<g><path style="opacity:0.976" fill="#de5053" d="M 35.5,130.5 C 37.8333,132.167 39.8333,134.167 41.5,136.5C 38.5,135.5 36.5,133.5 35.5,130.5 Z"/></g>
<g><path style="opacity:0.757" fill="#d9444b" d="M 276.5,129.5 C 275.864,131.795 274.531,133.461 272.5,134.5C 273.124,132.246 274.457,130.579 276.5,129.5 Z"/></g>
<g><path style="opacity:1" fill="#d93d3f" d="M 305.5,113.5 C 304.046,121.542 301.046,128.875 296.5,135.5C 299.121,127.962 302.121,120.629 305.5,113.5 Z"/></g>
<g><path style="opacity:0.8" fill="#d94c4f" d="M 106.5,131.5 C 106.267,133.062 105.6,134.395 104.5,135.5C 103.078,136.925 101.411,137.925 99.5,138.5C 101.5,135.833 103.833,133.5 106.5,131.5 Z"/></g>
<g><path style="opacity:1" fill="#e22d2f" d="M 104.5,135.5 C 104.649,136.552 104.483,137.552 104,138.5C 102.266,139.249 100.433,139.749 98.5,140C 97.6634,141.011 97.33,142.178 97.5,143.5C 95.5,143.5 93.5,143.5 91.5,143.5C 94.1586,141.836 96.8252,140.17 99.5,138.5C 101.411,137.925 103.078,136.925 104.5,135.5 Z"/></g>
<g><path style="opacity:1" fill="#e43136" d="M 295.5,137.5 C 293.109,142.279 289.776,146.279 285.5,149.5C 285.64,147.876 284.973,146.71 283.5,146C 285.134,145.506 286.801,145.34 288.5,145.5C 288.095,143.35 287.595,141.35 287,139.5C 288.395,138.185 289.395,138.519 290,140.5C 291.618,140.111 292.785,138.778 293.5,136.5C 294.183,136.863 294.85,137.196 295.5,137.5 Z"/></g>
<g><path style="opacity:1" fill="#dc3333" d="M 272.5,134.5 C 271.881,138.761 269.548,141.428 265.5,142.5C 267.372,139.418 269.705,136.751 272.5,134.5 Z"/></g>
<g><path style="opacity:0.824" fill="#d94446" d="M 12.5,139.5 C 15.7522,142.327 17.7522,145.993 18.5,150.5C 15.7396,147.317 13.7396,143.651 12.5,139.5 Z"/></g>
<g><path style="opacity:1" fill="#d33b3b" d="M 46.5,140.5 C 49.2028,142.181 51.8695,143.847 54.5,145.5C 50.488,145.797 47.8214,144.13 46.5,140.5 Z"/></g>
<g><path style="opacity:0.843" fill="#d63b3c" d="M 91.5,143.5 C 89.4093,146.53 86.4093,147.864 82.5,147.5C 85.4497,146.259 88.4497,144.926 91.5,143.5 Z"/></g>
<g><path style="opacity:0.867" fill="#d93f41" d="M 59.5,147.5 C 67.1595,148.793 74.8261,148.793 82.5,147.5C 79.4018,148.821 75.9018,149.488 72,149.5C 68.5,149.333 65,149.167 61.5,149C 60.5842,148.722 59.9175,148.222 59.5,147.5 Z"/></g>
<g><path style="opacity:0.867" fill="#d7403e" d="M 265.5,142.5 C 263.037,146.3 259.704,148.967 255.5,150.5C 258.539,147.46 261.873,144.794 265.5,142.5 Z"/></g>
<g><path style="opacity:1" fill="#e14744" d="M 151.5,150.5 C 150.92,152.749 149.587,154.415 147.5,155.5C 146.756,152.05 148.09,150.384 151.5,150.5 Z"/></g>
<g><path style="opacity:1" fill="#e23133" d="M 284.5,150.5 C 277.913,158.13 269.913,163.796 260.5,167.5C 260.577,166.25 261.244,165.417 262.5,165C 261.549,164.282 261.383,163.449 262,162.5C 263.699,163.406 265.533,163.739 267.5,163.5C 267.5,162.5 267.5,161.5 267.5,160.5C 268.833,160.5 270.167,160.5 271.5,160.5C 271.5,159.167 271.5,157.833 271.5,156.5C 274.797,156.671 275.131,156.005 272.5,154.5C 274.044,153.378 275.377,153.711 276.5,155.5C 277.924,151.8 280.591,150.134 284.5,150.5 Z"/></g>
<g><path style="opacity:0.69" fill="#d54846" d="M 147.5,155.5 C 146.71,156.401 145.71,157.068 144.5,157.5C 144.821,155.952 145.821,155.285 147.5,155.5 Z"/></g>
<g><path style="opacity:1" fill="#d83a3e" d="M 249.5,154.5 C 247.063,157.719 243.73,159.386 239.5,159.5C 242.614,157.458 245.948,155.791 249.5,154.5 Z"/></g>
<g><path style="opacity:1" fill="#da4141" d="M 24.5,159.5 C 27.179,159.525 28.5123,160.858 28.5,163.5C 26.8333,162.5 25.5,161.167 24.5,159.5 Z"/></g>
<g><path style="opacity:1" fill="#d7383f" d="M 239.5,159.5 C 237.824,161.834 235.491,162.834 232.5,162.5C 234.509,160.935 236.843,159.935 239.5,159.5 Z"/></g>
<g><path style="opacity:1" fill="#dd3834" d="M 140.5,161.5 C 138.14,163.853 135.473,165.853 132.5,167.5C 132.5,166.167 132.5,164.833 132.5,163.5C 133.833,163.5 135.167,163.5 136.5,163.5C 136.608,159.334 137.941,158.667 140.5,161.5 Z"/></g>
<g><path style="opacity:0.867" fill="#d9494b" d="M 28.5,163.5 C 31.4065,164.073 33.4065,165.739 34.5,168.5C 31.9108,167.581 29.9108,165.914 28.5,163.5 Z"/></g>
<g><path style="opacity:1" fill="#e6272c" d="M 52.5,179.5 C 45.4899,177.336 39.4899,173.669 34.5,168.5C 36.8654,169.008 39.1987,169.675 41.5,170.5C 42.9505,169.345 43.9505,167.845 44.5,166C 48.4918,164.823 50.1584,166.323 49.5,170.5C 47.4099,170.45 46.0766,171.45 45.5,173.5C 48.4524,174.805 50.7857,176.805 52.5,179.5 Z"/></g>
<g><path style="opacity:0.782" fill="#d5363a" d="M 232.5,162.5 C 231.571,163.315 230.571,164.148 229.5,165C 217.591,166.906 205.591,167.906 193.5,168C 194.056,168.383 194.389,168.883 194.5,169.5C 192.088,169.306 191.088,167.973 191.5,165.5C 205.332,167.049 218.998,166.049 232.5,162.5 Z"/></g>
<g><path style="opacity:1" fill="#dc3f3f" d="M 132.5,167.5 C 127.953,170.941 122.953,173.608 117.5,175.5C 119.511,173.661 121.844,172.161 124.5,171C 123.833,170.667 123.167,170.333 122.5,170C 125.89,169.256 129.223,168.423 132.5,167.5 Z"/></g>
<g><path style="opacity:1" fill="#d5373c" d="M 194.5,169.5 C 198.714,170.238 202.714,171.571 206.5,173.5C 202.085,173.139 198.085,171.806 194.5,169.5 Z"/></g>
<g><path style="opacity:1" fill="#dd3036" d="M 260.5,167.5 C 254.921,170.471 248.921,172.471 242.5,173.5C 241.5,173.5 240.5,173.5 239.5,173.5C 239.611,172.883 239.944,172.383 240.5,172C 244.535,171.909 248.202,170.743 251.5,168.5C 254.428,167.516 257.428,167.183 260.5,167.5 Z"/></g>
<g><path style="opacity:0.843" fill="#cd3439" d="M 239.5,173.5 C 240.5,173.5 241.5,173.5 242.5,173.5C 236.566,174.963 230.399,175.63 224,175.5C 219.985,175.499 216.151,175.165 212.5,174.5C 221.524,174.642 230.524,174.308 239.5,173.5 Z"/></g>
<g><path style="opacity:0.978" fill="#d64341" d="M 113.5,177.5 C 111.786,178.738 109.786,179.405 107.5,179.5C 108.99,177.72 110.99,177.054 113.5,177.5 Z"/></g>
<g><path style="opacity:0.933" fill="#da464d" d="M 52.5,179.5 C 55.716,179.345 58.3826,180.345 60.5,182.5C 57.6027,181.871 54.936,180.871 52.5,179.5 Z"/></g>
<g><path style="opacity:0.978" fill="#d4383d" d="M 107.5,179.5 C 102.241,182.089 96.5747,183.422 90.5,183.5C 90.6107,182.883 90.944,182.383 91.5,182C 96.951,181.637 102.284,180.804 107.5,179.5 Z"/></g>
</svg>
